<svg viewBox="0 0 218 175" fill="none" xmlns="http://www.w3.org/2000/svg">
    <circle cx="112.098" cy="89" r="86" fill="#F6ECEB" />
    <path
        d="M134.735 74.235l.75-1-2-1.5-.75 1 2 1.5zm-11.158 6.566v-1.25c-.418 0-.809.209-1.041.556l1.041.694zm-4.672 7.007v1.25a1.25 1.25 0 001.04-.557l-1.04-.693zm-4.671-1.25h-1.25v2.5h1.25v-2.5zm17.518-2.254h1.25c0-.331-.132-.65-.366-.883l-.884.883zm0 5.84h-1.25c0 .331.131.65.366.884l.884-.884zm.868 2.635l.884.884 1.767-1.767-.884-.884-1.767 1.767zm7.901 7.599l1.22.274.013-.059.007-.059-1.24-.156zm.221-3.535h-1.25 1.25zm-5.502-23.358l1.153-.48-.462-1.108-1.125.416.434 1.172zM132.5 74.5l-1.204-.338-.662 2.362 2.3-.852-.434-1.172zm1.235-4.399l1.203.338.126-.45-.2-.423-1.129.535zM99.624 57.53l-.943-.821-.026.03-.025.032.994.759zm-3.21 4.204l-.994-.759-.022.029-.02.03 1.035.7zm42.942 43.836l1.188.389.019-.057.013-.058-1.22-.274zm-6.621-32.835l-5.487 7.316 2 1.5 5.487-7.316-2-1.5zm-4.487 6.816h-4.671v2.5h4.671v-2.5zm-5.712.556l-4.671 7.008 2.08 1.386 4.672-7.007-2.081-1.387zm-3.631 6.45h-4.671v2.5h4.671v-2.5zm8.459-4.872l3.504 3.503 1.768-1.767-3.504-3.504-1.768 1.768zm3.138 2.62v5.839h2.5v-5.84h-2.5zm.366 6.723l1.752 1.751 1.767-1.767-1.751-1.752-1.768 1.768zm10.893 9.506c.154-1.225.231-2.457.231-3.691h-2.5c0 1.13-.071 2.258-.211 3.379l2.48.312zm.231-3.691c0-6.465-2.101-15.45-5.599-23.839l-2.307.963c3.417 8.195 5.406 16.844 5.406 22.876h2.5zm-7.186-24.53l-2.74 1.015.868 2.344 2.74-1.014-.868-2.345zm-1.103 2.525l1.235-4.4-2.407-.675-1.235 4.4 2.407.675zm1.161-5.272c-2.604-5.496-5.838-10.62-9.534-14.39-3.686-3.76-7.959-6.298-12.617-6.298v2.5c3.713 0 7.383 2.03 10.831 5.547 3.438 3.507 6.529 8.369 9.061 13.711l2.259-1.07zm-22.151-20.688c-5.258 0-10.027 3.23-14.032 7.83l1.886 1.642c3.809-4.376 7.948-6.972 12.146-6.972v-2.5zM95.378 61.034c-7.225 10.679-11.944 26.13-11.944 35.809h2.5c0-9.122 4.536-24.093 11.515-34.409l-2.071-1.4zM83.434 96.843c0 16.17 13.108 29.279 29.279 29.279v-2.5c-14.79 0-26.78-11.989-26.78-26.779h-2.5zm29.279 29.279c12.989 0 24-8.458 27.831-20.163l-2.376-.778c-3.505 10.709-13.579 18.441-25.455 18.441v2.5zm26.588-26.017l-1.164 5.192 2.439.547 1.165-5.192-2.44-.547zm-40.67-43.334l-3.211 4.204 1.987 1.518 3.21-4.205-1.987-1.517zM139 63.119L142.704 55l-2.274-1.038-3.705 8.12L139 63.118zm4.554 6.67l8.502-2.713-.76-2.381-8.502 2.712.76 2.382zm7.732 10.33l-7.721-4.475-1.254 2.163 7.722 4.474 1.253-2.163z"
        fill="#AF4C4C" />
</svg>