<svg viewBox="0 0 218 175" fill="none" xmlns="http://www.w3.org/2000/svg">
    <circle cx="112" cy="89" r="86" fill="#F7F7F6" />
    <circle cx="176.902" cy="40.902" r="29.699" transform="rotate(-31.866 176.902 40.902)" fill="#F0C62F" />
    <circle cx="9.5" cy="108.5" r="9.5" fill="#4CAF50" />
    <path
        d="M69.394 114.893l2.93 16.113h20.508l1.099-4.395h8.252l1.098 4.395h20.508l1.099-4.395h8.252l1.099 4.395h20.507l2.93-16.113m-1.389-5.86c0-13.51-6.38-24.461-14.25-24.461-7.871 0-14.251 10.952-14.251 24.461 0-13.51-6.38-24.461-14.251-24.461-7.87 0-14.25 10.952-14.25 24.461 0-13.51-6.38-24.461-14.251-24.461-7.87 0-14.251 10.952-14.251 24.461m-5.783 0h97.07v5.86H65v-5.86zm48.535-24.461c0-9.708 6.38-17.578 14.251-17.578 7.87 0 14.251 7.87 14.251 17.578"
        stroke="#949894" stroke-width="2.5" stroke-miterlimit="22.926" />
    <path stroke="#949894" stroke-width="2.5"
        d="M81.402 76.773L67.86 75.242m17.393-8.158L75.16 57.926m21.5 4.703V49m21.593 9.074l-10.093 9.159" />
</svg>