<svg viewBox="0 0 228 175" fill="none" xmlns="http://www.w3.org/2000/svg">
    <circle cx="112" cy="89" r="86" fill="#F7F7F6" />
    <circle cx="176.902" cy="40.902" r="29.699" transform="rotate(-31.866 176.902 40.902)" fill="#F0C62F" />
    <circle cx="9.5" cy="108.5" r="9.5" fill="#4CAF50" />
    <mask id="prefix__a" fill="#fff">
        <path
            d="M97.75 64c0-3.632-1.417-7.12-3.95-9.724a10.476 10.476 0 0111.297 2.223l2.45-2.498a13.949 13.949 0 00-16.8-2.1A13.976 13.976 0 0069.75 64v7h-7A1.75 1.75 0 0061 72.75v59.5a1.749 1.749 0 001.75 1.75H99.5v-3.5h-21v-56h5.25v7h3.5v-7H99.5V71h-1.75v-7zm-26.544 56.779a1.813 1.813 0 00-2.912 0l-3.794 5.696v-47.95l3.794 5.69a1.748 1.748 0 002.912 0L75 78.526v47.95l-3.794-5.696zm2.275 9.721h-7.462l3.731-5.6 3.73 5.6zM69.75 80.1l-3.73-5.6h7.46l-3.73 5.6zm3.5-9.1v-7a10.488 10.488 0 0114.45-9.724A13.948 13.948 0 0083.75 64v7h-10.5zm14-7a10.464 10.464 0 013.5-7.803A10.465 10.465 0 0194.25 64v7h-7v-7z" />
        <path
            d="M115.075 52.532c.118-.244.178-.511.175-.782V39.5h7v12.25c-.003.27.057.538.175.782l10.5 21 3.133-1.564-10.308-20.63V30.75A1.747 1.747 0 00124 29h-10.5a1.749 1.749 0 00-1.75 1.75v20.587l-10.316 20.631c-.121.243-.184.51-.184.782v59.5c0 .464.184.909.513 1.237.328.329.773.513 1.237.513h12.25v-3.5h-10.5V73.163l10.325-20.631zM122.25 32.5V36h-7v-3.5h7z" />
        <path
            d="M162.253 96.354L155.5 84.536V78a1.747 1.747 0 00-1.75-1.75h-28A1.749 1.749 0 00124 78v6.536l-6.769 11.839a1.733 1.733 0 00-.231.875v35c0 .464.184.909.513 1.237.328.329.773.513 1.237.513h42c.464 0 .909-.184 1.237-.513.329-.328.513-.773.513-1.237v-35a1.736 1.736 0 00-.247-.896zm-4.518-.854h-7.969l3.984-6.972 3.985 6.972zM127.5 79.75H152v3.5h-24.5v-3.5zm-.735 7h23.975l-5.005 8.75H121.76l5.005-8.75zM145 130.5h-24.5V99H145v31.5zm14 0h-10.5V99H159v31.5z" />
    </mask>
    <path
        d="M97.75 64c0-3.632-1.417-7.12-3.95-9.724a10.476 10.476 0 0111.297 2.223l2.45-2.498a13.949 13.949 0 00-16.8-2.1A13.976 13.976 0 0069.75 64v7h-7A1.75 1.75 0 0061 72.75v59.5a1.749 1.749 0 001.75 1.75H99.5v-3.5h-21v-56h5.25v7h3.5v-7H99.5V71h-1.75v-7zm-26.544 56.779a1.813 1.813 0 00-2.912 0l-3.794 5.696v-47.95l3.794 5.69a1.748 1.748 0 002.912 0L75 78.526v47.95l-3.794-5.696zm2.275 9.721h-7.462l3.731-5.6 3.73 5.6zM69.75 80.1l-3.73-5.6h7.46l-3.73 5.6zm3.5-9.1v-7a10.488 10.488 0 0114.45-9.724A13.948 13.948 0 0083.75 64v7h-10.5zm14-7a10.464 10.464 0 013.5-7.803A10.465 10.465 0 0194.25 64v7h-7v-7z"
        fill="#949894" />
    <path
        d="M115.075 52.532c.118-.244.178-.511.175-.782V39.5h7v12.25c-.003.27.057.538.175.782l10.5 21 3.133-1.564-10.308-20.63V30.75A1.747 1.747 0 00124 29h-10.5a1.749 1.749 0 00-1.75 1.75v20.587l-10.316 20.631c-.121.243-.184.51-.184.782v59.5c0 .464.184.909.513 1.237.328.329.773.513 1.237.513h12.25v-3.5h-10.5V73.163l10.325-20.631zM122.25 32.5V36h-7v-3.5h7z"
        fill="#949894" />
    <path
        d="M162.253 96.354L155.5 84.536V78a1.747 1.747 0 00-1.75-1.75h-28A1.749 1.749 0 00124 78v6.536l-6.769 11.839a1.733 1.733 0 00-.231.875v35c0 .464.184.909.513 1.237.328.329.773.513 1.237.513h42c.464 0 .909-.184 1.237-.513.329-.328.513-.773.513-1.237v-35a1.736 1.736 0 00-.247-.896zm-4.518-.854h-7.969l3.984-6.972 3.985 6.972zM127.5 79.75H152v3.5h-24.5v-3.5zm-.735 7h23.975l-5.005 8.75H121.76l5.005-8.75zM145 130.5h-24.5V99H145v31.5zm14 0h-10.5V99H159v31.5z"
        fill="#949894" />
    <path
        d="M97.75 64c0-3.632-1.417-7.12-3.95-9.724a10.476 10.476 0 0111.297 2.223l2.45-2.498a13.949 13.949 0 00-16.8-2.1A13.976 13.976 0 0069.75 64v7h-7A1.75 1.75 0 0061 72.75v59.5a1.749 1.749 0 001.75 1.75H99.5v-3.5h-21v-56h5.25v7h3.5v-7H99.5V71h-1.75v-7zm-26.544 56.779a1.813 1.813 0 00-2.912 0l-3.794 5.696v-47.95l3.794 5.69a1.748 1.748 0 002.912 0L75 78.526v47.95l-3.794-5.696zm2.275 9.721h-7.462l3.731-5.6 3.73 5.6zM69.75 80.1l-3.73-5.6h7.46l-3.73 5.6zm3.5-9.1v-7a10.488 10.488 0 0114.45-9.724A13.948 13.948 0 0083.75 64v7h-10.5zm14-7a10.464 10.464 0 013.5-7.803A10.465 10.465 0 0194.25 64v7h-7v-7z"
        stroke="#F7F7F6" mask="url(#prefix__a)" />
    <path
        d="M115.075 52.532c.118-.244.178-.511.175-.782V39.5h7v12.25c-.003.27.057.538.175.782l10.5 21 3.133-1.564-10.308-20.63V30.75A1.747 1.747 0 00124 29h-10.5a1.749 1.749 0 00-1.75 1.75v20.587l-10.316 20.631c-.121.243-.184.51-.184.782v59.5c0 .464.184.909.513 1.237.328.329.773.513 1.237.513h12.25v-3.5h-10.5V73.163l10.325-20.631zM122.25 32.5V36h-7v-3.5h7z"
        stroke="#F7F7F6" mask="url(#prefix__a)" />
    <path
        d="M162.253 96.354L155.5 84.536V78a1.747 1.747 0 00-1.75-1.75h-28A1.749 1.749 0 00124 78v6.536l-6.769 11.839a1.733 1.733 0 00-.231.875v35c0 .464.184.909.513 1.237.328.329.773.513 1.237.513h42c.464 0 .909-.184 1.237-.513.329-.328.513-.773.513-1.237v-35a1.736 1.736 0 00-.247-.896zm-4.518-.854h-7.969l3.984-6.972 3.985 6.972zM127.5 79.75H152v3.5h-24.5v-3.5zm-.735 7h23.975l-5.005 8.75H121.76l5.005-8.75zM145 130.5h-24.5V99H145v31.5zm14 0h-10.5V99H159v31.5z"
        stroke="#F7F7F6" mask="url(#prefix__a)" />
</svg>