<svg viewBox="0 0 228 175" fill="none" xmlns="http://www.w3.org/2000/svg"><circle cx="112" cy="89" r="86" fill='#F5F5F5'/><circle cx="176.902" cy="40.902" r="29.699" transform="rotate(-31.866 176.902 40.902)" fill="#F0C62F"/><circle cx="9.5" cy="108.5" r="9.5" fill="#4CAF50"/><g fill="#949894" stroke="#F7F7F6" stroke-width=".5"><path d="M93.706 54.045l-.343.14.258.266A13.698 13.698 0 0197.5 64v7.25h1.75v3H87v7h-3v-7h-5.75v56.5h21v3h-36.5a1.501 1.501 0 01-1.5-1.5v-59.5a1.5 1.5 0 011.5-1.5H70V64v0a13.723 13.723 0 0120.621-11.884l.126.074.126-.074a13.7 13.7 0 0116.319 1.89l-2.101 2.142a10.723 10.723 0 00-11.385-2.103zm-29.456 72.43v.827l.458-.688 3.79-5.691a1.576 1.576 0 011.252-.624 1.57 1.57 0 011.252.624l3.79 5.691.458.688V77.699l-.458.687-3.794 5.69v.001a1.499 1.499 0 01-2.496 0h0l-3.794-5.691-.458-.687v48.776zm9.23 4.275h.468l-.26-.389-3.73-5.6-.208-.312-.208.312-3.73 5.6-.26.389H73.481zm-3.938-50.511l.208.312.208-.312 3.73-5.6.26-.389H65.552l.26.389 3.73 5.6zM73 71v.25l.25-7.25H73v7zm14-7v7.25h7.5V64v0a10.714 10.714 0 00-3.584-7.99l-.166-.148-.166.148A10.715 10.715 0 0087 64z"/><path d="M115 130.75h-10.5V73.103l.026-.052 10.324-20.628.001-.001c.1-.209.151-.438.149-.67V39.25h7.5v12.502c-.002.232.049.461.149.67l.001.001 10.387 20.774 2.685-1.34-10.196-20.408-.026-.053V30.75a1.501 1.501 0 00-1.5-1.5h-10.5a1.502 1.502 0 00-1.5 1.5v20.647l-.026.052-10.317 20.63L115 130.75zm0 0v3h-12a1.503 1.503 0 01-1.5-1.5v-59.5h0c0-.233.054-.462.157-.67L115 130.75zm7.5-98.25v-.25H115v4h7.5V32.5z"/><path d="M162.036 96.478h0l.003.004c.139.232.212.497.211.767v35.001a1.503 1.503 0 01-1.5 1.5h-42a1.503 1.503 0 01-1.5-1.5V97.249a1.48 1.48 0 01.198-.75h0l6.769-11.839.033-.057V78a1.501 1.501 0 011.5-1.5h28a1.502 1.502 0 011.5 1.5v6.603l.033.057 6.753 11.818zm-4.301-.728h.43l-.213-.374-3.985-6.972-.217-.38-.217.38-3.985 6.972-.213.374h8.4zM127.5 79.5h-.25v4h25v-4H127.5zm-.735 7h-.145l-.072.126-5.005 8.75-.214.374H145.88l.072-.126 5.005-8.75.214-.374H126.765zM145 130.75h.25v-32h-25v32H145zm14 0h.25v-32h-11v32H159z"/></g></svg>