<svg viewBox="0 0 212 82" fill="none" xmlns="http://www.w3.org/2000/svg"><path d="M0-65h212v212H0V-65z" fill="#FEFEFD"/><path d="M32.078 40.477c1.407 0 2.628-.176 3.665-.527 1.054-.352 1.915-.833 2.581-1.444a5.904 5.904 0 001.527-2.22c.333-.852.5-1.786.5-2.804 0-2.035-.676-3.6-2.027-4.691-1.332-1.092-3.377-1.638-6.134-1.638h-4.775v13.324h4.663zm19.209 21.04h-6.745c-1.277 0-2.202-.5-2.776-1.498l-8.438-12.852c-.315-.481-.667-.824-1.055-1.027-.37-.204-.925-.306-1.666-.306h-3.192v15.684h-7.467V21.38H32.19c2.72 0 5.052.287 6.995.86 1.961.555 3.562 1.342 4.802 2.36 1.258 1.017 2.183 2.239 2.775 3.664.593 1.406.889 2.96.889 4.663 0 1.35-.204 2.628-.611 3.83a10.67 10.67 0 01-1.721 3.276c-.74.98-1.665 1.841-2.776 2.581-1.092.74-2.34 1.324-3.747 1.75.481.277.925.61 1.332.998.407.37.778.815 1.11 1.333l10.049 14.823zm19.757-17.515c0-.888-.13-1.72-.389-2.498a5.78 5.78 0 00-1.11-2.082c-.5-.592-1.138-1.054-1.916-1.388-.758-.351-1.647-.527-2.664-.527-1.98 0-3.544.564-4.691 1.693-1.13 1.13-1.851 2.73-2.166 4.802h12.936zM57.97 48.138c.11 1.462.37 2.73.777 3.803.407 1.055.944 1.934 1.61 2.637a6.56 6.56 0 002.36 1.554c.925.334 1.942.5 3.053.5 1.11 0 2.063-.13 2.859-.388.814-.26 1.517-.546 2.11-.86.61-.316 1.137-.602 1.581-.861.463-.26.907-.389 1.333-.389.573 0 1 .213 1.277.638l1.97 2.499a11.73 11.73 0 01-2.553 2.248 15.179 15.179 0 01-2.97 1.443 16.483 16.483 0 01-3.137.75 22.168 22.168 0 01-3.081.222c-1.98 0-3.821-.324-5.524-.972a12.613 12.613 0 01-4.441-2.914c-1.259-1.296-2.248-2.887-2.97-4.775-.722-1.906-1.083-4.108-1.083-6.606 0-1.943.315-3.766.944-5.468.63-1.721 1.527-3.21 2.693-4.47 1.184-1.276 2.618-2.285 4.302-3.025 1.703-.74 3.618-1.11 5.746-1.11 1.795 0 3.451.287 4.969.86 1.517.574 2.822 1.416 3.913 2.526 1.092 1.092 1.943 2.443 2.554 4.053.63 1.591.944 3.414.944 5.468 0 1.037-.111 1.74-.333 2.11-.222.352-.648.527-1.277.527H57.97zm44.996-9.077a3.14 3.14 0 01-.61.611c-.185.148-.463.222-.833.222-.352 0-.694-.102-1.027-.305a18.22 18.22 0 00-1.194-.722 7.769 7.769 0 00-1.665-.722c-.63-.222-1.416-.333-2.36-.333-1.203 0-2.257.222-3.164.666a5.991 5.991 0 00-2.276 1.86c-.592.815-1.037 1.805-1.333 2.97-.296 1.148-.444 2.452-.444 3.914 0 1.518.158 2.869.472 4.053.333 1.184.805 2.184 1.416 2.998a6.218 6.218 0 002.22 1.832c.87.407 1.851.61 2.943.61s1.97-.13 2.637-.388c.684-.278 1.258-.574 1.72-.888.463-.334.861-.63 1.194-.889a1.84 1.84 0 011.166-.416c.555 0 .972.213 1.249.638l1.971 2.499a12.78 12.78 0 01-2.47 2.248 14.183 14.183 0 01-2.776 1.443c-.944.352-1.925.602-2.943.75-.999.148-1.998.222-2.997.222-1.758 0-3.414-.324-4.969-.972a11.9 11.9 0 01-4.08-2.886c-1.166-1.259-2.091-2.795-2.776-4.608-.666-1.832-1-3.914-1-6.246 0-2.09.297-4.025.889-5.801.61-1.795 1.499-3.34 2.665-4.636 1.165-1.314 2.609-2.34 4.33-3.08 1.72-.741 3.7-1.111 5.94-1.111 2.128 0 3.988.342 5.579 1.027a13.626 13.626 0 014.331 2.942l-1.805 2.498zm21.425 10.299c-1.98.092-3.646.268-4.996.527-1.351.24-2.434.555-3.248.944-.814.388-1.397.842-1.749 1.36a2.959 2.959 0 00-.527 1.693c0 1.203.351 2.063 1.055 2.582.721.518 1.656.777 2.803.777 1.407 0 2.619-.25 3.636-.75 1.037-.518 2.045-1.295 3.026-2.331V49.36zM108.68 37.007c3.275-2.997 7.217-4.496 11.825-4.496 1.665 0 3.155.277 4.469.832 1.314.537 2.424 1.296 3.331 2.276.907.963 1.591 2.12 2.054 3.47.481 1.351.722 2.831.722 4.442v17.987h-3.109c-.648 0-1.148-.093-1.499-.278-.352-.204-.629-.601-.833-1.194l-.611-2.054a26.839 26.839 0 01-2.109 1.721 12.96 12.96 0 01-2.138 1.222c-.74.333-1.535.582-2.387.75-.832.184-1.758.277-2.775.277-1.203 0-2.314-.158-3.331-.472-1.018-.333-1.897-.824-2.637-1.471a6.532 6.532 0 01-1.721-2.415c-.408-.963-.611-2.082-.611-3.359 0-.722.12-1.434.361-2.137a6.357 6.357 0 011.166-2.054c.555-.648 1.267-1.259 2.137-1.833.87-.573 1.934-1.073 3.192-1.498 1.277-.426 2.757-.768 4.441-1.027 1.684-.278 3.609-.445 5.774-.5V43.53c0-1.907-.407-3.313-1.221-4.22-.815-.925-1.99-1.388-3.526-1.388-1.11 0-2.035.13-2.775.389a10.9 10.9 0 00-1.916.888c-.555.315-1.064.602-1.526.86a2.92 2.92 0 01-1.499.39c-.481 0-.889-.12-1.222-.361a3.323 3.323 0 01-.805-.889l-1.221-2.193zm35.797-16.737v41.248h-6.856V20.269h6.856zm13.937 12.768v28.48h-6.884v-28.48h6.884zm19.592-.444c2.11 0 4.025.342 5.746 1.027 1.74.685 3.22 1.656 4.441 2.914 1.24 1.259 2.193 2.795 2.859 4.608.667 1.814 1 3.84 1 6.08 0 2.257-.333 4.293-1 6.106-.666 1.813-1.619 3.359-2.859 4.636-1.221 1.276-2.701 2.257-4.441 2.942-1.721.685-3.636 1.027-5.746 1.027-2.128 0-4.062-.342-5.801-1.027-1.74-.685-3.229-1.666-4.469-2.942-1.222-1.277-2.175-2.823-2.859-4.636-.666-1.813-1-3.85-1-6.107 0-2.239.334-4.265 1-6.079.684-1.813 1.637-3.35 2.859-4.608 1.24-1.258 2.729-2.23 4.469-2.914 1.739-.685 3.673-1.027 5.801-1.027zm0 24.066c2.369 0 4.118-.796 5.246-2.387 1.148-1.592 1.721-3.923 1.721-6.995s-.573-5.413-1.721-7.023c-1.128-1.61-2.877-2.415-5.246-2.415-2.406 0-4.191.814-5.357 2.443-1.147 1.61-1.721 3.941-1.721 6.995 0 3.053.574 5.385 1.721 6.995 1.166 1.591 2.951 2.387 5.357 2.387z" fill="#4CAF50"/><path d="M154.893 29.06l3.415 2.04c.625.375 1.39-.178 1.226-.877l-.906-3.838 3.02-2.586c.551-.471.255-1.366-.469-1.423l-3.974-.333-1.555-3.627c-.28-.658-1.234-.658-1.514 0l-1.555 3.619-3.974.333c-.724.057-1.02.952-.469 1.423l3.02 2.586-.906 3.838c-.164.699.601 1.252 1.226.878l3.415-2.033z" fill="#F0C62F"/></svg>