<svg viewBox="0 0 80 80" fill="none" xmlns="http://www.w3.org/2000/svg"><path d="M62.036 31.228h0l.003.004c.139.232.212.497.211.767V67a1.5 1.5 0 01-1.5 1.5h-42a1.5 1.5 0 01-1.5-1.5V31.998a1.486 1.486 0 01.198-.748h0l6.77-11.84.032-.058V12.75a1.5 1.5 0 011.5-1.5h28a1.5 1.5 0 011.5 1.5v6.603l.033.057 6.753 11.818zm-4.301-.728h.43l-.213-.374-3.985-6.972-.217-.38-.217.38-3.985 6.972-.213.374h8.4zM27.5 14.25h-.25v4h25v-4H27.5zm-.735 7h-.145l-.072.126-5.004 8.75-.215.374H45.88l.072-.126 5.005-8.75.214-.374H26.765zM45 65.5h.25v-32h-25v32H45zm14 0h.25v-32h-11v32H59z" fill="currentColor" stroke="currentColor" stroke-width=".5"/></svg>