<svg viewBox="0 0 46 46" fill="none" xmlns="http://www.w3.org/2000/svg">
    <path
        d="M20.5 22c1.407 0 2.628-.176 3.665-.527 1.054-.352 1.915-.833 2.581-1.444a5.904 5.904 0 001.527-2.22c.333-.852.5-1.786.5-2.804 0-2.035-.676-3.6-2.027-4.691-1.332-1.092-3.377-1.638-6.134-1.638h-4.775v13.324h4.663zm19.209 21.04h-6.745c-1.277 0-2.202-.5-2.776-1.498l-8.438-12.852c-.315-.481-.667-.824-1.055-1.027-.37-.204-.925-.306-1.666-.306h-3.192v15.684h-7.467v-40.18h12.2c2.72 0 5.052.287 6.995.86 1.961.555 3.562 1.342 4.802 2.36 1.258 1.017 2.183 2.239 2.775 3.664.593 1.406.889 2.96.889 4.663 0 1.35-.204 2.628-.611 3.83a10.67 10.67 0 01-1.721 3.276c-.74.98-1.665 1.841-2.776 2.581-1.092.74-2.34 1.324-3.747 1.75.481.277.925.61 1.332.998.407.37.778.815 1.11 1.333l10.049 14.823z"
        fill="#4CAF50" />
    <path
        d="M26.2 33.1 l3.415 2.04c.625.375 1.39-.178 1.226-.877l-.906-3.838 3.02-2.586c.551-.471.255-1.366-.469-1.423l-3.974-.333-1.555-3.627c-.28-.658-1.234-.658-1.514 0l-1.555 3.619-3.974.333c-.724.057-1.02.952-.469 1.423l3.02 2.586-.906 3.838c-.164.699.601 1.252 1.226.878l3.415-2.033z"
        fill="#F0C62F" transform="scale(1.3)" />
</svg>